<svg width="246" height="157" viewBox="0 0 246 157" fill="none" xmlns="http://www.w3.org/2000/svg">
<g clip-path="url(#clip0_2803_50566)">
<path d="M25.4468 135.32C27.2132 136.654 28.0902 138.606 28.0902 141.187C28.0902 142.46 27.8555 143.942 27.3985 145.609C26.6326 148.302 25.595 150.439 24.298 152.02C23.001 153.602 21.284 154.75 19.1594 155.467C17.0347 156.183 14.3172 156.529 10.9944 156.517L1.51999 156.48C1.03824 156.48 0.655316 156.393 0.383561 156.233C0.111806 156.072 -0.0117188 155.85 -0.0117188 155.566C-0.0117188 155.43 0.0253387 155.281 0.0871012 155.109C0.161216 154.899 0.260036 154.75 0.383561 154.651C0.507086 154.553 0.704726 154.429 0.951776 154.269C1.32235 154.059 1.61881 153.824 1.84116 153.577C2.0635 153.317 2.24879 152.91 2.42172 152.354L6.68334 137.395C6.7698 137.099 6.81921 136.802 6.81921 136.518C6.81921 136.259 6.78216 136.049 6.69569 135.876C6.60922 135.703 6.49805 135.493 6.36217 135.27C6.15218 134.974 6.05336 134.727 6.05336 134.542C6.05336 134.467 6.07806 134.344 6.12747 134.159C6.22629 133.862 6.42393 133.64 6.73275 133.516C7.04156 133.393 7.52331 133.331 8.17799 133.331H17.5782C21.0616 133.331 23.6804 133.998 25.4468 135.332V135.32ZM19.3941 139.693C19.3941 138.457 19.1347 137.617 18.6282 137.148C18.1217 136.679 17.3806 136.456 16.4295 136.456H15.6636L10.9697 153.379H11.8096C12.8719 153.379 13.7737 153.157 14.5025 152.7C15.2313 152.243 15.9107 151.415 16.5406 150.192C17.1706 148.969 17.8129 147.191 18.4923 144.844C19.0976 142.657 19.3941 140.94 19.3941 139.693Z" fill="white"/>
<path d="M45.9883 139.321C47.3101 140.259 47.9771 141.458 47.9771 142.928C47.9771 143.372 47.9277 143.78 47.8412 144.15C47.4953 145.682 46.5195 146.782 44.9384 147.436C43.3449 148.103 41.4797 148.424 39.318 148.424C38.231 148.424 37.2057 148.35 36.2546 148.214C36.2299 149.425 36.551 150.265 37.2304 150.759C37.8975 151.241 38.8486 151.488 40.0468 151.488C40.6027 151.488 41.1338 151.426 41.6526 151.29C42.1591 151.167 42.8138 150.969 43.6043 150.722C44.259 150.487 44.6913 150.376 44.926 150.376C45.1854 150.376 45.309 150.524 45.309 150.833C45.3337 151.648 45.0249 152.501 44.4072 153.39C43.7896 154.28 42.8508 155.045 41.6279 155.675C40.3927 156.305 38.9104 156.614 37.1687 156.614C34.587 156.614 32.4747 155.959 30.8318 154.662C29.1889 153.365 28.3613 151.475 28.3613 148.993C28.3613 148.301 28.4478 147.486 28.6454 146.559C29.226 143.706 30.4983 141.556 32.4624 140.099C34.4264 138.654 36.8104 137.925 39.6145 137.925C42.5667 137.925 44.6913 138.394 46.0254 139.333L45.9883 139.321ZM36.8722 146.164C37.848 146.164 38.5892 145.707 39.0957 144.805C39.6021 143.903 39.8492 142.891 39.8245 141.779C39.7997 141.124 39.6145 140.803 39.2686 140.803C39.0092 140.803 38.7127 141.013 38.3669 141.408C38.021 141.816 37.6751 142.421 37.3416 143.236C37.0081 144.052 36.724 145.015 36.4893 146.127C36.5757 146.152 36.7116 146.164 36.8722 146.164Z" fill="white"/>
<path d="M63.7256 138.295C65.1337 138.641 66.2084 139.135 66.9619 139.753C67.7154 140.383 68.0983 141.087 68.0983 141.877C68.0983 142.668 67.7772 143.347 67.1472 143.866C66.5049 144.373 65.6155 144.632 64.4791 144.632C63.3426 144.632 62.3421 144.348 61.5392 143.767C60.7362 143.187 60.341 142.458 60.341 141.569C60.341 141.272 60.3904 140.976 60.4768 140.704C60.0569 140.593 59.6863 140.531 59.3651 140.531C58.7846 140.531 58.3028 140.667 57.9199 140.951C57.5369 141.235 57.3517 141.618 57.3764 142.137C57.3764 142.742 57.6728 143.249 58.2781 143.669C58.8834 144.089 59.8592 144.607 61.2056 145.237C62.3668 145.744 63.3179 146.213 64.0838 146.646C64.8373 147.078 65.4796 147.609 65.9984 148.264C66.5172 148.918 66.7766 149.684 66.7766 150.561C66.7766 150.747 66.7272 151.092 66.6407 151.611C66.2702 153.168 65.2326 154.391 63.5403 155.305C61.848 156.206 59.6122 156.663 56.8576 156.663C53.7447 156.663 51.2866 156.243 49.4584 155.416C47.6302 154.576 46.7285 153.427 46.7285 151.969C46.7285 150.969 47.025 150.215 47.6302 149.709C48.2355 149.202 49.0384 148.943 50.0266 148.943C51.1878 148.943 52.176 149.301 53.0036 150.018C53.8312 150.734 54.2388 151.648 54.2388 152.772C54.2388 153.069 54.2018 153.39 54.14 153.711C54.6959 153.847 55.227 153.921 55.7458 153.921C56.3511 153.921 56.8452 153.761 57.2405 153.439C57.6358 153.118 57.8334 152.661 57.8334 152.081C57.8087 151.549 57.5369 151.092 57.0305 150.709C56.524 150.327 55.7088 149.87 54.5971 149.338C53.5471 148.857 52.6948 148.4 52.0154 147.967C51.3483 147.535 50.7678 147.004 50.286 146.349C49.8043 145.694 49.5696 144.929 49.5696 144.051C49.5696 142.149 50.3601 140.63 51.9536 139.506C53.5471 138.382 55.7952 137.813 58.7228 137.813C60.6498 137.813 62.3174 137.986 63.7132 138.332L63.7256 138.295Z" fill="white"/>
<path d="M84.3798 138.295C85.788 138.641 86.8627 139.135 87.6162 139.753C88.3697 140.383 88.7526 141.087 88.7526 141.877C88.7526 142.668 88.4315 143.347 87.8015 143.866C87.1592 144.373 86.2698 144.632 85.1334 144.632C83.9969 144.632 82.9964 144.348 82.1935 143.767C81.3905 143.187 80.9953 142.458 80.9953 141.569C80.9953 141.272 81.0447 140.976 81.1311 140.704C80.7112 140.593 80.3406 140.531 80.0194 140.531C79.4389 140.531 78.9571 140.667 78.5742 140.951C78.1913 141.235 78.006 141.618 78.0307 142.137C78.0307 142.742 78.3271 143.249 78.9324 143.669C79.5377 144.089 80.5135 144.607 81.8599 145.237C83.0211 145.744 83.9722 146.213 84.7381 146.646C85.4916 147.078 86.1339 147.609 86.6527 148.264C87.1715 148.918 87.4309 149.684 87.4309 150.561C87.4309 150.747 87.3815 151.092 87.295 151.611C86.9245 153.168 85.8869 154.391 84.1946 155.305C82.5023 156.206 80.2665 156.663 77.5119 156.663C74.399 156.663 71.9409 156.243 70.1127 155.416C68.2845 154.576 67.3828 153.427 67.3828 151.969C67.3828 150.969 67.6793 150.215 68.2845 149.709C68.8898 149.202 69.6927 148.943 70.6809 148.943C71.8421 148.943 72.8303 149.301 73.6579 150.018C74.4855 150.734 74.8931 151.648 74.8931 152.772C74.8931 153.069 74.8561 153.39 74.7943 153.711C75.3502 153.847 75.8813 153.921 76.4001 153.921C77.0054 153.921 77.4995 153.761 77.8948 153.439C78.2901 153.118 78.4877 152.661 78.4877 152.081C78.463 151.549 78.1912 151.092 77.6848 150.709C77.1783 150.327 76.3631 149.87 75.2514 149.338C74.2014 148.857 73.3491 148.4 72.6697 147.967C72.0027 147.535 71.4221 147.004 70.9403 146.349C70.4586 145.694 70.2239 144.929 70.2239 144.051C70.2239 142.149 71.0144 140.63 72.6079 139.506C74.2014 138.382 76.4496 137.813 79.3771 137.813C81.3041 137.813 82.9717 137.986 84.3675 138.332L84.3798 138.295Z" fill="white"/>
<path d="M106.775 139.321C108.097 140.259 108.764 141.458 108.764 142.928C108.764 143.372 108.715 143.78 108.628 144.15C108.282 145.682 107.307 146.782 105.725 147.436C104.132 148.103 102.267 148.424 100.105 148.424C99.0181 148.424 97.9928 148.35 97.0417 148.214C97.017 149.425 97.3381 150.265 98.0175 150.759C98.6846 151.241 99.6357 151.488 100.834 151.488C101.39 151.488 101.921 151.426 102.44 151.29C102.946 151.167 103.601 150.969 104.391 150.722C105.046 150.487 105.478 150.376 105.713 150.376C105.973 150.376 106.096 150.524 106.096 150.833C106.121 151.648 105.812 152.501 105.194 153.39C104.577 154.28 103.638 155.045 102.415 155.675C101.18 156.305 99.6975 156.614 97.9558 156.614C95.3741 156.614 93.2618 155.959 91.6189 154.662C89.9761 153.365 89.1484 151.475 89.1484 148.993C89.1484 148.301 89.2349 147.486 89.4325 146.559C90.0131 143.706 91.2854 141.556 93.2495 140.099C95.2135 138.654 97.5975 137.925 100.402 137.925C103.354 137.925 105.478 138.394 106.813 139.333L106.775 139.321ZM97.6593 146.164C98.6352 146.164 99.3763 145.707 99.8828 144.805C100.389 143.903 100.636 142.891 100.612 141.779C100.587 141.124 100.402 140.803 100.056 140.803C99.7963 140.803 99.4998 141.013 99.154 141.408C98.8081 141.816 98.4622 142.421 98.1287 143.236C97.7952 144.052 97.5111 145.015 97.2764 146.127C97.3629 146.152 97.4987 146.164 97.6593 146.164Z" fill="white"/>
<path d="M128.281 139.271C129.06 140.062 129.442 141.038 129.442 142.199C129.442 142.643 129.393 143.051 129.307 143.422C129.072 144.373 128.627 145.102 127.985 145.62C127.33 146.127 126.552 146.386 125.65 146.386C124.749 146.386 124.106 146.176 123.649 145.756C123.192 145.336 122.797 144.78 122.451 144.089C122.266 143.693 122.093 143.409 121.932 143.224C121.772 143.039 121.586 142.94 121.376 142.94C121.142 142.94 120.944 143.039 120.771 143.224C120.598 143.409 120.437 143.73 120.302 144.2L117.621 152.908C117.572 153.02 117.547 153.205 117.547 153.427C117.547 153.724 117.633 153.983 117.806 154.181C117.979 154.378 118.214 154.564 118.523 154.749C118.807 154.934 118.992 155.082 119.079 155.206C119.178 155.317 119.202 155.478 119.178 155.663C119.128 155.959 118.968 156.182 118.671 156.33C118.375 156.466 117.893 156.54 117.189 156.54H108.27C107.665 156.54 107.233 156.441 106.961 156.244C106.689 156.046 106.59 155.786 106.664 155.465C106.763 155.181 106.998 154.947 107.393 154.737C107.739 154.551 108.036 154.329 108.258 154.069C108.493 153.81 108.69 153.402 108.851 152.847L111.951 142.792C112.001 142.68 112.025 142.508 112.025 142.298C112.025 142.038 111.976 141.841 111.865 141.705C111.766 141.569 111.593 141.396 111.358 141.186C111.124 141.001 110.963 140.84 110.877 140.704C110.778 140.568 110.778 140.383 110.84 140.148C110.975 139.617 111.704 139.148 113.038 138.74C114.36 138.332 115.744 138.135 117.176 138.135C118.128 138.135 118.918 138.345 119.548 138.777C120.178 139.209 120.586 139.815 120.771 140.605C121.883 138.962 123.353 138.135 125.156 138.135C126.453 138.135 127.491 138.53 128.269 139.321L128.281 139.271Z" fill="white"/>
<path d="M144.807 138.815C145.054 139 145.178 139.259 145.178 139.58C145.178 139.679 145.153 139.84 145.104 140.062C144.807 141.087 144.103 141.594 143.016 141.594H141.003L138.396 150.191C138.285 150.537 138.223 150.895 138.223 151.266C138.223 151.686 138.335 151.97 138.569 152.131C138.804 152.291 139.125 152.378 139.545 152.378C139.916 152.378 140.385 152.328 140.941 152.242C141.225 152.168 141.46 152.143 141.67 152.143C141.83 152.143 141.954 152.192 142.04 152.304C142.127 152.402 142.164 152.538 142.164 152.699C142.189 153.168 141.843 153.724 141.139 154.391C140.435 155.058 139.471 155.626 138.261 156.096C137.05 156.565 135.716 156.812 134.258 156.812C132.677 156.812 131.417 156.454 130.466 155.738C129.515 155.021 129.033 154.033 129.033 152.773C129.033 152.192 129.12 151.637 129.317 151.105L131.541 144.213C131.652 143.817 131.714 143.509 131.714 143.274C131.714 142.804 131.603 142.422 131.38 142.088C131.158 141.767 130.849 141.421 130.454 141.075C130.108 140.754 129.861 140.482 129.725 140.26C129.589 140.038 129.552 139.778 129.626 139.482C129.713 139.185 129.91 138.95 130.219 138.79C130.516 138.629 130.997 138.543 131.652 138.543H133.604L135.802 136.344C136.568 135.578 137.272 135.047 137.915 134.738C138.557 134.442 139.385 134.281 140.41 134.281C141.867 134.281 142.609 134.837 142.609 135.949C142.609 136.295 142.559 136.628 142.473 136.925L141.991 138.531H143.831C144.276 138.531 144.61 138.629 144.857 138.815H144.807Z" fill="white"/>
<path d="M179.963 134.885C179.963 135.206 179.889 135.614 179.753 136.108L178.913 138.924C178.653 139.789 178.344 140.382 177.974 140.74C177.603 141.086 177.072 141.259 176.368 141.259C175.788 141.259 175.343 141.111 175.034 140.802C174.725 140.506 174.429 140.024 174.145 139.369L173.552 137.936C173.366 137.492 173.169 137.195 172.959 137.035C172.749 136.874 172.428 136.787 171.983 136.787H171.18L166.758 152.352C166.684 152.66 166.659 152.92 166.659 153.155C166.659 153.439 166.696 153.661 166.783 153.846C166.869 154.032 166.98 154.229 167.153 154.439C167.363 154.76 167.462 155.032 167.462 155.242C167.462 155.292 167.437 155.403 167.388 155.588C167.277 155.897 167.042 156.107 166.708 156.255C166.375 156.391 165.893 156.465 165.263 156.465H157.086C156.604 156.465 156.221 156.379 155.949 156.218C155.678 156.057 155.554 155.823 155.554 155.526C155.554 155.39 155.591 155.242 155.653 155.106C155.739 154.896 155.851 154.736 155.986 154.637C156.11 154.538 156.308 154.402 156.555 154.242C156.901 154.032 157.197 153.797 157.419 153.55C157.654 153.29 157.852 152.895 158.012 152.364L162.397 136.8H161.594C161.088 136.8 160.668 136.886 160.347 137.047C160.026 137.207 159.668 137.516 159.297 137.949L158.148 139.381C157.617 140.011 157.098 140.481 156.604 140.79C156.11 141.098 155.566 141.259 154.986 141.259C154.455 141.259 154.035 141.123 153.738 140.839C153.442 140.555 153.281 140.172 153.281 139.69C153.281 139.456 153.318 139.209 153.38 138.924L154.282 135.75C154.467 135.095 154.677 134.601 154.912 134.268C155.146 133.934 155.48 133.687 155.9 133.539C156.332 133.391 156.938 133.316 157.728 133.316H178.023C179.296 133.316 179.938 133.835 179.938 134.885H179.963Z" fill="white"/>
<path d="M188.697 138.851C189.327 139.358 189.636 140.062 189.636 140.939C189.636 141.47 189.549 141.989 189.389 142.47L186.189 152.884C186.115 153.168 186.09 153.402 186.09 153.612C186.09 153.921 186.152 154.156 186.263 154.329C186.375 154.502 186.548 154.675 186.745 154.835C186.906 154.996 187.029 155.132 187.091 155.231C187.165 155.329 187.178 155.465 187.128 155.626C187.017 155.922 186.782 156.145 186.436 156.293C186.09 156.429 185.559 156.503 184.831 156.503H176.888C176.283 156.503 175.838 156.404 175.566 156.206C175.282 156.009 175.196 155.749 175.282 155.428C175.381 155.144 175.616 154.909 176.011 154.699C176.357 154.514 176.653 154.292 176.888 154.032C177.123 153.773 177.32 153.365 177.481 152.809L180.507 142.754C180.581 142.545 180.606 142.372 180.606 142.236C180.606 141.976 180.544 141.779 180.433 141.63C180.322 141.482 180.149 141.322 179.914 141.161C179.68 140.976 179.519 140.815 179.432 140.679C179.334 140.543 179.334 140.358 179.395 140.123C179.531 139.592 180.26 139.123 181.594 138.715C182.916 138.308 184.299 138.11 185.732 138.11C187.079 138.11 188.067 138.369 188.697 138.876V138.851ZM190.327 131.279C190.933 131.872 191.229 132.601 191.229 133.453C191.229 134.058 191.069 134.651 190.76 135.232C190.451 135.812 190.006 136.282 189.438 136.64C188.87 136.998 188.24 137.184 187.536 137.184C186.659 137.184 185.918 136.887 185.325 136.294C184.732 135.701 184.423 134.96 184.398 134.083C184.398 133.502 184.546 132.934 184.855 132.354C185.152 131.785 185.584 131.316 186.14 130.946C186.696 130.575 187.338 130.39 188.055 130.39C188.956 130.39 189.71 130.686 190.315 131.279H190.327Z" fill="white"/>
<path d="M222.43 151.7C222.38 151.798 222.356 151.934 222.356 152.12C222.356 152.28 222.393 152.416 222.479 152.503C222.566 152.601 222.665 152.638 222.813 152.638C223.097 152.638 223.332 152.515 223.529 152.268C223.727 152.021 223.863 151.897 223.925 151.897C224.036 151.897 224.135 151.971 224.209 152.12C224.283 152.268 224.307 152.453 224.307 152.663C224.332 153.33 224.11 153.997 223.64 154.627C223.171 155.257 222.492 155.788 221.602 156.196C220.713 156.604 219.638 156.801 218.378 156.801C216.847 156.801 215.624 156.443 214.722 155.739C213.82 155.035 213.351 154.084 213.326 152.898C213.326 152.033 213.536 151.082 213.956 150.007L215.871 144.992C215.982 144.696 216.044 144.449 216.044 144.263C216.044 143.967 215.945 143.72 215.747 143.547C215.55 143.374 215.315 143.288 215.031 143.288C214.635 143.288 214.228 143.461 213.808 143.806C213.388 144.152 213.017 144.696 212.696 145.449L210.781 151.675C210.732 151.774 210.707 151.91 210.707 152.095C210.707 152.256 210.744 152.391 210.831 152.478C210.917 152.564 211.029 152.614 211.164 152.614C211.448 152.614 211.683 152.49 211.881 152.243C212.078 151.996 212.214 151.873 212.276 151.873C212.387 151.873 212.486 151.947 212.56 152.095C212.634 152.243 212.659 152.428 212.659 152.638C212.684 153.305 212.461 153.973 211.992 154.602C211.523 155.245 210.843 155.764 209.954 156.171C209.064 156.579 207.99 156.777 206.73 156.777C205.198 156.777 203.975 156.418 203.073 155.714C202.172 155.01 201.702 154.059 201.678 152.873C201.678 152.008 201.888 151.057 202.308 149.983L204.222 144.968C204.333 144.671 204.395 144.424 204.395 144.239C204.395 143.942 204.296 143.695 204.099 143.522C203.901 143.349 203.666 143.263 203.382 143.263C202.987 143.263 202.579 143.436 202.159 143.769C201.739 144.103 201.394 144.646 201.109 145.388L198.812 152.836C198.713 153.095 198.676 153.33 198.676 153.565C198.676 153.849 198.738 154.071 198.849 154.244C198.96 154.417 199.133 154.602 199.331 154.788C199.491 154.924 199.615 155.06 199.677 155.171C199.751 155.282 199.763 155.43 199.714 155.591C199.615 155.887 199.405 156.11 199.047 156.258C198.701 156.394 198.157 156.468 197.416 156.468H189.473C188.868 156.468 188.436 156.369 188.164 156.171C187.892 155.974 187.793 155.714 187.868 155.393C187.966 155.109 188.201 154.874 188.596 154.664C188.942 154.479 189.239 154.257 189.461 153.997C189.696 153.738 189.893 153.33 190.054 152.774L193.154 142.719C193.204 142.608 193.229 142.435 193.229 142.225C193.229 141.966 193.179 141.768 193.068 141.632C192.969 141.496 192.796 141.324 192.562 141.114C192.327 140.928 192.166 140.768 192.08 140.632C191.981 140.496 191.981 140.311 192.043 140.076C192.179 139.545 192.907 139.075 194.241 138.668C195.563 138.26 196.947 138.062 198.38 138.062C199.516 138.062 200.418 138.371 201.072 139.001C201.739 139.631 202.048 140.484 202.024 141.583C202.975 140.261 203.975 139.347 205.038 138.828C206.088 138.322 207.236 138.062 208.472 138.062C209.818 138.062 210.917 138.458 211.757 139.224C212.61 140.002 213.079 141.015 213.166 142.275C214.166 140.694 215.228 139.594 216.365 138.989C217.501 138.371 218.749 138.062 220.095 138.062C221.516 138.062 222.652 138.495 223.529 139.347C224.406 140.199 224.839 141.324 224.839 142.695C224.839 143.411 224.727 144.128 224.493 144.819L222.368 151.675L222.43 151.7Z" fill="white"/>
<path d="M244.01 139.321C245.332 140.259 245.999 141.458 245.999 142.928C245.999 143.372 245.949 143.78 245.863 144.15C245.517 145.682 244.541 146.782 242.96 147.436C241.366 148.103 239.501 148.424 237.339 148.424C236.252 148.424 235.227 148.35 234.276 148.214C234.251 149.425 234.573 150.265 235.252 150.759C235.919 151.241 236.87 151.488 238.068 151.488C238.624 151.488 239.155 151.426 239.674 151.29C240.181 151.167 240.835 150.969 241.626 150.722C242.28 150.487 242.713 150.376 242.947 150.376C243.207 150.376 243.33 150.524 243.33 150.833C243.355 151.648 243.046 152.501 242.429 153.39C241.811 154.28 240.872 155.045 239.649 155.675C238.414 156.305 236.932 156.614 235.19 156.614C232.608 156.614 230.496 155.959 228.853 154.662C227.21 153.365 226.383 151.475 226.383 148.993C226.383 148.301 226.469 147.486 226.667 146.559C227.247 143.706 228.52 141.556 230.484 140.099C232.448 138.654 234.832 137.925 237.636 137.925C240.588 137.925 242.713 138.394 244.047 139.333L244.01 139.321ZM234.894 146.164C235.87 146.164 236.611 145.707 237.117 144.805C237.624 143.903 237.871 142.891 237.846 141.779C237.821 141.124 237.636 140.803 237.29 140.803C237.031 140.803 236.734 141.013 236.388 141.408C236.042 141.816 235.697 142.421 235.363 143.236C235.03 144.052 234.745 145.015 234.511 146.127C234.597 146.152 234.733 146.164 234.894 146.164Z" fill="white"/>
</g>
<g clip-path="url(#clip1_2803_50566)">
<path d="M123.001 120.002C156.138 120.002 183.002 93.1383 183.002 60.0008C183.002 26.8633 156.138 0 123.001 0C89.8633 0 63 26.8633 63 60.0008C63 93.1383 89.8633 120.002 123.001 120.002Z" fill="white"/>
<path d="M163.38 72.908C164.011 51.1541 150.077 44.0859 132.591 38.4705C114.897 32.7883 113.145 15.708 113.145 15.708C113.145 15.708 81.7469 34.4968 83.3733 66.9153C72.8242 69.9702 65.1094 79.6962 65.1094 91.2296C65.1094 105.212 76.445 116.548 90.4278 116.548C94.3498 116.548 98.0635 115.655 101.377 114.064C108.511 117.774 117.617 120 127.541 120C137.465 120 146.966 117.674 154.168 113.817C155.288 114.001 156.435 114.102 157.606 114.102C169.205 114.102 178.609 104.698 178.609 93.0994C178.609 83.5027 172.17 75.4151 163.378 72.9064L163.38 72.908Z" fill="white"/>
<path d="M127.543 121.709C118.085 121.709 108.82 119.672 101.344 115.961C97.901 117.485 94.2346 118.257 90.4297 118.257C75.528 118.257 63.4043 106.133 63.4043 91.2313C63.4043 79.7238 70.83 69.4059 81.621 65.6817C80.8588 33.4213 111.951 14.4333 112.269 14.2431C112.769 13.9434 113.39 13.9206 113.91 14.1822C114.432 14.4439 114.784 14.9536 114.844 15.5347C114.913 16.1843 116.743 31.5881 133.114 36.8459C149.362 42.0641 165.177 49.0685 165.108 71.6667C174.127 74.825 180.317 83.4557 180.317 93.1011C180.317 105.623 170.129 115.812 157.607 115.812C156.569 115.812 155.516 115.737 154.468 115.591C146.86 119.539 137.325 121.709 127.542 121.709H127.543ZM101.379 112.355C101.65 112.355 101.92 112.419 102.167 112.547C109.291 116.252 118.302 118.292 127.542 118.292C136.781 118.292 146.16 116.168 153.362 112.311C153.692 112.133 154.074 112.071 154.447 112.132C155.503 112.305 156.565 112.393 157.607 112.393C168.246 112.393 176.9 103.737 176.9 93.098C176.9 84.5267 171.148 76.8986 162.91 74.5481C162.16 74.3336 161.649 73.6368 161.673 72.8564C162.291 51.5787 148.022 45.2179 132.069 40.0955C117.846 35.5284 113.32 23.8261 111.974 18.5424C105.159 23.356 83.7646 40.6204 85.0791 66.8303C85.1186 67.6214 84.609 68.3364 83.8483 68.557C73.821 71.4613 66.8182 80.7857 66.8182 91.2313C66.8182 104.25 77.4099 114.841 90.4281 114.841C94.0033 114.841 97.4385 114.062 100.638 112.524C100.871 112.412 101.125 112.355 101.377 112.355H101.379Z" fill="#E24644"/>
<path d="M162.152 107.148C168.258 104.479 172.525 98.3864 172.525 91.2969Z" fill="white"/>
<path d="M162.152 108.858C161.493 108.858 160.866 108.474 160.587 107.834C160.209 106.97 160.603 105.963 161.467 105.585C167.147 103.103 170.818 97.4948 170.818 91.2983C170.818 90.3551 171.583 89.5898 172.526 89.5898C173.469 89.5898 174.235 90.3536 174.235 91.2983C174.235 98.8519 169.76 105.689 162.837 108.715C162.614 108.812 162.382 108.858 162.154 108.858H162.152Z" fill="#E24644"/>
<path d="M156.828 108.514C157.202 108.479 157.575 108.434 157.942 108.376Z" fill="white"/>
<path d="M156.828 110.222C155.954 110.222 155.21 109.557 155.128 108.67C155.043 107.731 155.734 106.899 156.672 106.812C157.01 106.782 157.346 106.739 157.678 106.688C158.606 106.546 159.482 107.179 159.63 108.11C159.776 109.041 159.14 109.916 158.207 110.062C157.804 110.126 157.397 110.176 156.986 110.214C156.933 110.219 156.879 110.222 156.826 110.222H156.828Z" fill="#E24644"/>
<path opacity="0.2" d="M111.857 16.0423C105.898 27.279 91.7067 58.3527 110.279 69.5119C95.9132 73.656 85.9133 82.8785 85.9133 93.5888C85.9133 101.847 91.8618 109.224 101.177 114.063C97.8621 115.656 94.156 116.548 90.234 116.548C76.2497 116.548 64.9141 105.212 64.9141 91.2277C64.9141 79.6973 72.6304 69.9698 83.1779 66.9134C81.5547 34.4948 111.813 15.7061 111.813 15.7061C111.813 15.7061 111.828 15.8247 111.859 16.0408L111.857 16.0423Z" fill="#E24644"/>
<path d="M126.135 51.8536C131.98 51.8536 136.718 47.1156 136.718 41.271C136.718 35.4264 131.98 30.6885 126.135 30.6885C120.291 30.6885 115.553 35.4264 115.553 41.271C115.553 47.1156 120.291 51.8536 126.135 51.8536Z" fill="#E24644"/>
<path d="M132.593 43.4653H132.587C131.644 43.4623 130.882 42.6955 130.885 41.7523C130.889 40.4287 130.411 39.1492 129.54 38.1543C128.919 37.4438 128.99 36.3651 129.699 35.7444C130.411 35.1222 131.489 35.1952 132.109 35.9042C133.529 37.5259 134.306 39.6071 134.3 41.7629C134.297 42.7046 133.533 43.4653 132.592 43.4653H132.593Z" fill="white"/>
<path d="M124.749 35.9151C123.888 35.9151 123.148 35.2685 123.054 34.3953C122.998 33.8704 121.814 21.4288 135.036 12.5851C135.818 12.0618 136.88 12.2702 137.405 13.0552C137.928 13.8402 137.718 14.8991 136.935 15.424C125.49 23.0764 126.406 33.589 126.45 34.0332C126.543 34.9688 125.863 35.8086 124.927 35.906C124.868 35.9121 124.807 35.9151 124.747 35.9151H124.749Z" fill="#E24644"/>
<path d="M71.0722 88.9922C70.9687 89.6099 70.8911 90.2351 70.8379 90.8695Z" fill="white"/>
<path d="M70.8407 92.5765C70.7935 92.5765 70.7463 92.575 70.6977 92.5704C69.7575 92.4928 69.0592 91.6682 69.1367 90.7281C69.193 90.0571 69.2767 89.3786 69.3878 88.7107C69.5429 87.7797 70.4208 87.1483 71.3534 87.3065C72.2829 87.4617 72.9128 88.341 72.7576 89.2721C72.6617 89.8457 72.5887 90.4314 72.5415 91.0095C72.467 91.9025 71.7215 92.5765 70.8407 92.5765Z" fill="#E24644"/>
<path d="M83.1083 72.8838C78.1761 75.3317 74.251 79.5017 72.1211 84.6074Z" fill="white"/>
<path d="M72.1198 86.3174C71.9007 86.3174 71.6771 86.2748 71.4626 86.185C70.5924 85.8214 70.1816 84.8219 70.5437 83.9517C72.8288 78.4733 77.0216 74.0005 82.3479 71.3548C83.1922 70.9365 84.2176 71.2803 84.6375 72.1246C85.0574 72.969 84.7121 73.9944 83.8677 74.4143C79.2778 76.6933 75.6661 80.5469 73.6975 85.2661C73.4236 85.9218 72.7892 86.3174 72.1213 86.3174H72.1198Z" fill="#E24644"/>
<path d="M116.797 71.3455C118.552 71.3455 119.975 69.9226 119.975 68.1674C119.975 66.4121 118.552 64.9893 116.797 64.9893C115.042 64.9893 113.619 66.4121 113.619 68.1674C113.619 69.9226 115.042 71.3455 116.797 71.3455Z" fill="#E24644"/>
<path d="M137.61 71.3455C139.365 71.3455 140.788 69.9226 140.788 68.1674C140.788 66.4121 139.365 64.9893 137.61 64.9893C135.855 64.9893 134.432 66.4121 134.432 68.1674C134.432 69.9226 135.855 71.3455 137.61 71.3455Z" fill="#E24644"/>
<path d="M89.9663 118.257C89.0231 118.257 88.2578 117.493 88.2578 116.548C88.2578 115.603 89.0215 114.84 89.9663 114.84C96.7059 114.84 103.208 112.01 107.806 107.076C108.451 106.387 109.531 106.349 110.22 106.991C110.911 107.634 110.949 108.715 110.305 109.405C105.064 115.031 97.6507 118.257 89.9663 118.257Z" fill="#E24644"/>
<path d="M131.938 75.2998C131.938 76.949 129.909 78.2847 127.405 78.2847C124.901 78.2847 122.871 76.949 122.871 75.2998" fill="white"/>
<path d="M127.406 79.4239C124.224 79.4239 121.732 77.612 121.732 75.3011C121.732 74.6727 122.242 74.1631 122.87 74.1631C123.499 74.1631 124.008 74.6727 124.008 75.3011C124.008 76.1728 125.46 77.148 127.404 77.148C129.348 77.148 130.8 76.1728 130.8 75.3011C130.8 74.6727 131.309 74.1631 131.938 74.1631C132.566 74.1631 133.076 74.6727 133.076 75.3011C133.076 77.6135 130.584 79.4239 127.403 79.4239H127.406Z" fill="#E24644"/>
<path d="M119.914 73.501C122.065 73.501 123.809 75.2445 123.809 77.3956C123.809 79.5468 122.065 81.2903 119.914 81.2903" fill="white"/>
<path d="M119.915 82.4285C119.285 82.4285 118.777 81.9188 118.777 81.2905C118.777 80.6622 119.287 80.1525 119.915 80.1525C121.434 80.1525 122.67 78.9172 122.67 77.3973C122.67 75.8775 121.434 74.6422 119.915 74.6422C119.285 74.6422 118.777 74.1325 118.777 73.5042C118.777 72.8759 119.287 72.3662 119.915 72.3662C122.69 72.3662 124.948 74.6239 124.948 77.3989C124.948 80.1738 122.69 82.4315 119.915 82.4315V82.4285Z" fill="#E24644"/>
</g>
<defs>
<clipPath id="clip0_2803_50566">
<rect width="246" height="26.422" fill="white" transform="translate(0 130.391)"/>
</clipPath>
<clipPath id="clip1_2803_50566">
<rect width="120" height="121.708" fill="white" transform="translate(63)"/>
</clipPath>
</defs>
</svg>
